<svg xmlns="http://www.w3.org/2000/svg" viewBox="0 0 200 200">
  <defs>
    <linearGradient id="wool" x1="0" y1="0" x2="1" y2="1"><stop offset="0" stop-color="#93a5c8"/><stop offset="1" stop-color="#5f739b"/></linearGradient>
    <pattern id="knit" width="8" height="8" patternUnits="userSpaceOnUse"><path d="M0 1 L4 7 L8 1" fill="none" stroke="#3f4f73" stroke-width="1.2" opacity=".28"/></pattern>
    <pattern id="rib" width="5" height="10" patternUnits="userSpaceOnUse"><rect width="2.4" height="10" fill="#3f4f73" opacity=".3"/></pattern>
    <path id="body" d="M72 26 C82 44 118 44 128 26 L162 40 L186 118 L158 126 L148 88 L148 174 H52 V88 L42 126 L14 118 L38 40 Z"/>
  </defs>
  <ellipse cx="100" cy="188" rx="68" ry="6" fill="#000" opacity=".15"/>
  <use href="#body" fill="url(#wool)"/>
  <use href="#body" fill="url(#knit)"/>
  <path d="M14 118 L42 126 L38 140 L10 132 Z" fill="#6b7fa6"/><path d="M14 118 L42 126 L38 140 L10 132 Z" fill="url(#rib)"/>
  <path d="M186 118 L158 126 L162 140 L190 132 Z" fill="#6b7fa6"/><path d="M186 118 L158 126 L162 140 L190 132 Z" fill="url(#rib)"/>
  <rect x="52" y="158" width="96" height="18" rx="3" fill="#6b7fa6"/><rect x="52" y="158" width="96" height="18" rx="3" fill="url(#rib)"/>
  <path d="M70 26 C80 46 120 46 130 26 C126 20 114 16 100 16 C86 16 74 20 70 26Z" fill="#6b7fa6"/>
  <path d="M70 26 C80 46 120 46 130 26 C126 20 114 16 100 16 C86 16 74 20 70 26Z" fill="url(#rib)"/>
  <path d="M82 27 C90 36 110 36 118 27" fill="none" stroke="#2f3d5a" stroke-width="3" opacity=".55" stroke-linecap="round"/>
  <path d="M52 92 L44 124 M148 92 L156 124" stroke="#3f4f73" stroke-width="2" opacity=".35" stroke-linecap="round"/>
  <path d="M60 60 C70 76 74 100 72 130" fill="none" stroke="#fff" stroke-width="7" stroke-linecap="round" opacity=".12"/>
</svg>
