<svg xmlns="http://www.w3.org/2000/svg" viewBox="0 0 600 800">
<defs>
 <radialGradient id="bg" cx=".5" cy=".55" r=".8"><stop offset="0" stop-color="#2b2c33"/><stop offset="1" stop-color="#09090b"/></radialGradient>
 <radialGradient id="floor" cx=".5" cy=".5" r=".5"><stop offset="0" stop-color="#fff" stop-opacity=".18"/><stop offset="1" stop-color="#fff" stop-opacity="0"/></radialGradient>
 <linearGradient id="up" x1="0" y1="0" x2="0" y2="1"><stop offset="0" stop-color="#2b2c33"/><stop offset="1" stop-color="#131418"/></linearGradient>
 <linearGradient id="shade" x1="0" y1="0" x2="0" y2="1"><stop offset="0" stop-color="#fff" stop-opacity=".22"/><stop offset=".35" stop-color="#fff" stop-opacity="0"/><stop offset=".72" stop-color="#000" stop-opacity="0"/><stop offset="1" stop-color="#000" stop-opacity=".5"/></linearGradient>
 <linearGradient id="mid" x1="0" y1="0" x2="0" y2="1"><stop offset="0" stop-color="#faf8f3"/><stop offset="1" stop-color="#cbc6bb"/></linearGradient>
 <linearGradient id="air" x1="0" y1="0" x2="0" y2="1"><stop offset="0" stop-color="#101116"/><stop offset=".55" stop-color="#1b1c22"/><stop offset="1" stop-color="#ff7a45"/></linearGradient>
 <linearGradient id="rf" x1="0" y1="0" x2="0" y2="1"><stop offset="0" stop-color="#fff"/><stop offset="1" stop-color="#000"/></linearGradient>
 <mask id="rm" maskUnits="userSpaceOnUse" x="0" y="500" width="600" height="200"><rect x="0" y="512" width="600" height="150" fill="url(#rf)"/></mask>
 <filter id="b14"><feGaussianBlur stdDeviation="16"/></filter><filter id="b5"><feGaussianBlur stdDeviation="5"/></filter>
 <clipPath id="uc"><path d="M30 152 C24 120 30 84 44 56 C56 44 80 40 100 46 C118 52 136 66 150 76 C210 90 290 104 344 116 C396 128 452 134 478 154 C494 166 494 184 486 190 C420 184 330 178 260 168 C200 160 120 150 30 152Z"/></clipPath>
 <g id="shoe">
  <!-- Außensohle -->
  <path d="M34 226 C34 240 42 242 54 242 H330 C404 242 468 238 496 228 L492 216 L34 214Z" fill="#0e0e11"/>
  <path d="M60 242 H330 C380 242 420 240 456 236" stroke="#2a2a30" stroke-width="2" stroke-dasharray="6 5" fill="none"/>
  <g transform="translate(0 1.6) scale(1 1.12)">
  <path d="M30 152 C24 120 30 84 44 56 C56 44 80 40 100 46 C118 52 136 66 150 76 C210 90 290 104 344 116 C396 128 452 134 478 154 C494 166 494 184 486 190 C420 184 330 178 260 168 C200 160 120 150 30 152Z" fill="url(#up)"/>
  <g clip-path="url(#uc)">
   <path d="M30 152 C24 120 30 84 44 56 L86 48 C72 84 70 120 78 156 L30 156Z" fill="#e4572e"/>
   <path d="M118 90 C190 102 262 116 322 132 L366 176 L120 158Z" fill="#3d3f48"/>
   <path d="M380 120 C432 128 476 140 494 162 L494 196 L368 182 C392 166 396 142 380 120Z" fill="#3d3f48"/>
   <path d="M150 76 C210 90 290 106 340 122" stroke="#1c1d22" stroke-width="30" stroke-linecap="round" fill="none"/>
   <path d="M44 56 C56 44 80 40 100 46 C118 52 136 66 150 76 C130 76 100 68 74 66 C60 64 50 60 44 56Z" fill="#0a0a0c"/>
   <path d="M30 156 H500 V200 H30Z" fill="#000" opacity=".0"/>
  </g>
  <path d="M30 152 C24 120 30 84 44 56 C56 44 80 40 100 46 C118 52 136 66 150 76 C210 90 290 104 344 116 C396 128 452 134 478 154 C494 166 494 184 486 190 C420 184 330 178 260 168 C200 160 120 150 30 152Z" fill="url(#shade)"/>
  <!-- Nähte -->
  <g fill="none" stroke="#ffffff" stroke-width="1.4" stroke-dasharray="3.5 3" stroke-linecap="round" opacity=".7">
   <path d="M122 96 C192 108 262 122 320 138 L360 172"/><path d="M384 128 C428 136 470 148 488 166"/><path d="M40 62 C28 90 34 128 42 150"/><path d="M76 60 C68 88 68 122 76 152"/>
   <path d="M156 66 C214 80 290 96 336 110"/>
  </g>
  <circle cx="404" cy="146" r="2" fill="#0c0c0f"/><circle cx="414" cy="152" r="2" fill="#0c0c0f"/><circle cx="424" cy="146" r="2" fill="#0c0c0f"/><circle cx="434" cy="152" r="2" fill="#0c0c0f"/><circle cx="444" cy="158" r="2" fill="#0c0c0f"/><circle cx="424" cy="160" r="2" fill="#0c0c0f"/><circle cx="436" cy="166" r="2" fill="#0c0c0f"/><circle cx="414" cy="164" r="2" fill="#0c0c0f"/><circle cx="454" cy="164" r="2" fill="#0c0c0f"/><circle cx="400" cy="160" r="2" fill="#0c0c0f"/><circle cx="446" cy="172" r="2" fill="#0c0c0f"/>
  <!-- Zunge -->
  <path d="M116 68 C118 34 156 20 184 40 L206 94 L152 86Z" fill="#33353d"/>
  <path d="M130 52 C138 36 160 34 170 46" fill="none" stroke="#fff" stroke-width="2" opacity=".25" stroke-linecap="round"/>
  <g transform="translate(152 58) rotate(30)"><g fill="#ffffff"><path transform="translate(-11.49 5.28) scale(0.0120 -0.0120)" d="M266 541Q246 541 246 521Q246 514 251 497Q258 474 282.0 453.5Q306 433 345 406Q377 384 386 376Q430 338 456.0 312.5Q482 287 503.5 252.5Q525 218 525 182Q525 158 513 132Q490 85 437.5 60.0Q385 35 326 35Q306 35 286 38Q150 61 35 219Q29 228 29 237Q29 259 58.5 277.5Q88 296 117 296Q139 296 149 283Q211 199 271 160Q326 124 364 124Q395 124 395 151Q395 170 380 198Q365 225 341.0 249.0Q317 273 280 304L253 327Q249 331 216 356Q189 376 170.0 393.0Q151 410 138 430Q121 457 121 486Q121 531 159.5 568.5Q198 606 248 620Q280 629 309 629Q363 629 413.5 604.0Q464 579 516 535Q525 528 525 518Q525 499 494.0 481.0Q463 463 433 463Q413 463 403 472Q384 488 337.5 514.5Q291 541 266 541Z"/><path transform="translate(-5.18 5.28) scale(0.0120 -0.0120)" d="M348 360Q348 405 332.5 442.5Q317 480 284 504Q262 520 242 520Q234 520 222 516Q231 512 231 502Q231 496 227 488Q204 444 191.0 392.5Q178 341 178 289Q178 229 196 175Q208 145 221 128Q227 121 233 118Q262 138 285.5 174.0Q309 210 325 249Q348 303 348 360ZM466 381Q466 322 443.0 260.0Q420 198 380.0 146.0Q340 94 291 64Q245 36 201 36Q157 36 124.0 63.0Q91 90 76 141Q59 193 59 258Q59 297 65 334Q58 332 44 332Q10 332 10 355Q10 363 12 368Q46 463 114.5 533.5Q183 604 272 604Q285 604 311 600Q360 590 395.0 557.0Q430 524 448.0 477.5Q466 431 466 381Z"/><path transform="translate(0.54 5.28) scale(0.0120 -0.0120)" d="M220 878Q252 878 251 854Q235 675 198 360Q174 145 167 81Q165 60 135.5 43.5Q106 27 78 27Q39 27 42 56Q77 400 131 828Q133 847 163.0 862.5Q193 878 220 878Z"/><path transform="translate(3.41 5.28) scale(0.0120 -0.0120)" d="M475 696Q486 696 495 690Q507 682 507 668Q507 651 491 637Q442 594 411.5 531.5Q381 469 351 379Q312 260 259 58Q254 41 225.0 22.5Q196 4 171 4Q149 4 142 23Q49 288 43 603Q42 624 73.5 643.0Q105 662 133 662Q162 662 162 640Q162 455 203 274Q229 362 253 424Q286 513 323.0 575.5Q360 638 418 676Q429 684 445.0 690.0Q461 696 475 696Z"/><path transform="translate(8.81 5.28) scale(0.0120 -0.0120)" d="M151 624Q167 624 177.0 617.5Q187 611 186 597L157 54Q156 33 128.0 17.5Q100 2 72 2Q35 2 36 31L66 573Q67 593 95.0 608.5Q123 624 151 624ZM97 677Q124 677 152.0 692.0Q180 707 183 728Q191 778 194 803Q198 828 163 828Q136 828 107.0 813.0Q78 798 76 779L64 705Q62 691 71.5 684.0Q81 677 97 677Z"/></g></g>
  <path d="M159.0 89.0 L175.0 71.0" stroke="#000" stroke-opacity=".28" stroke-width="8" stroke-linecap="round"/><path d="M158.0 87.0 L174.0 69.0" stroke="#f5f2ec" stroke-width="6.5" stroke-linecap="round"/><circle cx="175.0" cy="71.0" r="2.3" fill="#8a8a90"/><path d="M189.0 96.5 L205.0 78.5" stroke="#000" stroke-opacity=".28" stroke-width="8" stroke-linecap="round"/><path d="M188.0 94.5 L204.0 76.5" stroke="#f5f2ec" stroke-width="6.5" stroke-linecap="round"/><circle cx="205.0" cy="78.5" r="2.3" fill="#8a8a90"/><path d="M219.0 104.8 L235.0 86.8" stroke="#000" stroke-opacity=".28" stroke-width="8" stroke-linecap="round"/><path d="M218.0 102.8 L234.0 84.8" stroke="#f5f2ec" stroke-width="6.5" stroke-linecap="round"/><circle cx="235.0" cy="86.8" r="2.3" fill="#8a8a90"/><path d="M249.0 113.8 L265.0 95.8" stroke="#000" stroke-opacity=".28" stroke-width="8" stroke-linecap="round"/><path d="M248.0 111.8 L264.0 93.8" stroke="#f5f2ec" stroke-width="6.5" stroke-linecap="round"/><circle cx="265.0" cy="95.8" r="2.3" fill="#8a8a90"/><path d="M279.0 123.4 L295.0 105.4" stroke="#000" stroke-opacity=".28" stroke-width="8" stroke-linecap="round"/><path d="M278.0 121.4 L294.0 103.4" stroke="#f5f2ec" stroke-width="6.5" stroke-linecap="round"/><circle cx="295.0" cy="105.4" r="2.3" fill="#8a8a90"/><path d="M309.0 133.8 L325.0 115.8" stroke="#000" stroke-opacity=".28" stroke-width="8" stroke-linecap="round"/><path d="M308.0 131.8 L324.0 113.8" stroke="#f5f2ec" stroke-width="6.5" stroke-linecap="round"/><circle cx="325.0" cy="115.8" r="2.3" fill="#8a8a90"/>
  <!-- Kragenpolster -->
  <path d="M44 54 C56 40 82 36 104 44 C122 50 138 62 150 72" fill="none" stroke="#22232a" stroke-width="7" stroke-linecap="round"/>
  <path d="M50 50 C64 40 84 39 100 44" fill="none" stroke="#fff" stroke-width="2" opacity=".28" stroke-linecap="round"/>
  <path d="M36 52 C24 50 22 72 34 76" fill="none" stroke="#e4572e" stroke-width="5" stroke-linecap="round"/>
  </g>
  <!-- Mittelsohle -->
  <path d="M30 172 C26 172 24 178 24 184 L26 224 C26 234 34 238 48 238 H330 C404 238 470 234 496 224 C500 220 500 216 492 215 C420 208 330 200 260 190 C200 182 120 172 30 172Z" fill="url(#mid)"/>
  <path d="M30 172 C120 172 200 182 260 190 C330 200 420 208 492 215" fill="none" stroke="#fff" stroke-width="2" opacity=".6"/>
  <path d="M28 228 C60 232 300 234 330 234 C404 234 466 230 494 222" fill="none" stroke="#e4572e" stroke-width="4" opacity=".9"/>
  <!-- Luftpolster hinten -->
  <rect x="46" y="182" width="154" height="46" rx="20" fill="url(#air)" stroke="#efe6d8" stroke-width="3"/>
  <path d="M58 190 C60 200 60 210 58 224 H69 C67 210 67 200 69 190Z" fill="#fff" opacity=".55"/><path d="M84 190 C86 200 86 210 84 224 H95 C93 210 93 200 95 190Z" fill="#fff" opacity=".55"/><path d="M110 190 C112 200 112 210 110 224 H121 C119 210 119 200 121 190Z" fill="#fff" opacity=".55"/><path d="M136 190 C138 200 138 210 136 224 H147 C145 210 145 200 147 190Z" fill="#fff" opacity=".55"/><path d="M162 190 C164 200 164 210 162 224 H173 C171 210 171 200 173 190Z" fill="#fff" opacity=".55"/>
  <path d="M60 189 C100 185 150 185 188 191" stroke="#fff" stroke-width="2.5" opacity=".45" fill="none" stroke-linecap="round"/>
  <ellipse cx="80" cy="218" rx="22" ry="5" fill="#ff7a45" opacity=".5" filter="url(#b5)"/>
  <!-- Luftpolster vorn -->
  <rect x="308" y="208" width="118" height="22" rx="11" fill="url(#air)" stroke="#efe6d8" stroke-width="2.5"/>
  <rect x="322" y="211" width="7" height="16" rx="3.5" fill="#fff" opacity=".5"/><rect x="344" y="211" width="7" height="16" rx="3.5" fill="#fff" opacity=".5"/><rect x="366" y="211" width="7" height="16" rx="3.5" fill="#fff" opacity=".5"/><rect x="388" y="211" width="7" height="16" rx="3.5" fill="#fff" opacity=".5"/><rect x="410" y="211" width="7" height="16" rx="3.5" fill="#fff" opacity=".5"/>
  <!-- Solvi -->
  <g transform="translate(228 156) rotate(13)"><g fill="#ffffff"><path transform="translate(-32.56 14.96) scale(0.0340 -0.0340)" d="M266 541Q246 541 246 521Q246 514 251 497Q258 474 282.0 453.5Q306 433 345 406Q377 384 386 376Q430 338 456.0 312.5Q482 287 503.5 252.5Q525 218 525 182Q525 158 513 132Q490 85 437.5 60.0Q385 35 326 35Q306 35 286 38Q150 61 35 219Q29 228 29 237Q29 259 58.5 277.5Q88 296 117 296Q139 296 149 283Q211 199 271 160Q326 124 364 124Q395 124 395 151Q395 170 380 198Q365 225 341.0 249.0Q317 273 280 304L253 327Q249 331 216 356Q189 376 170.0 393.0Q151 410 138 430Q121 457 121 486Q121 531 159.5 568.5Q198 606 248 620Q280 629 309 629Q363 629 413.5 604.0Q464 579 516 535Q525 528 525 518Q525 499 494.0 481.0Q463 463 433 463Q413 463 403 472Q384 488 337.5 514.5Q291 541 266 541Z"/><path transform="translate(-14.68 14.96) scale(0.0340 -0.0340)" d="M348 360Q348 405 332.5 442.5Q317 480 284 504Q262 520 242 520Q234 520 222 516Q231 512 231 502Q231 496 227 488Q204 444 191.0 392.5Q178 341 178 289Q178 229 196 175Q208 145 221 128Q227 121 233 118Q262 138 285.5 174.0Q309 210 325 249Q348 303 348 360ZM466 381Q466 322 443.0 260.0Q420 198 380.0 146.0Q340 94 291 64Q245 36 201 36Q157 36 124.0 63.0Q91 90 76 141Q59 193 59 258Q59 297 65 334Q58 332 44 332Q10 332 10 355Q10 363 12 368Q46 463 114.5 533.5Q183 604 272 604Q285 604 311 600Q360 590 395.0 557.0Q430 524 448.0 477.5Q466 431 466 381Z"/><path transform="translate(1.54 14.96) scale(0.0340 -0.0340)" d="M220 878Q252 878 251 854Q235 675 198 360Q174 145 167 81Q165 60 135.5 43.5Q106 27 78 27Q39 27 42 56Q77 400 131 828Q133 847 163.0 862.5Q193 878 220 878Z"/><path transform="translate(9.67 14.96) scale(0.0340 -0.0340)" d="M475 696Q486 696 495 690Q507 682 507 668Q507 651 491 637Q442 594 411.5 531.5Q381 469 351 379Q312 260 259 58Q254 41 225.0 22.5Q196 4 171 4Q149 4 142 23Q49 288 43 603Q42 624 73.5 643.0Q105 662 133 662Q162 662 162 640Q162 455 203 274Q229 362 253 424Q286 513 323.0 575.5Q360 638 418 676Q429 684 445.0 690.0Q461 696 475 696Z"/><path transform="translate(24.97 14.96) scale(0.0340 -0.0340)" d="M151 624Q167 624 177.0 617.5Q187 611 186 597L157 54Q156 33 128.0 17.5Q100 2 72 2Q35 2 36 31L66 573Q67 593 95.0 608.5Q123 624 151 624ZM97 677Q124 677 152.0 692.0Q180 707 183 728Q191 778 194 803Q198 828 163 828Q136 828 107.0 813.0Q78 798 76 779L64 705Q62 691 71.5 684.0Q81 677 97 677Z"/></g></g>
  <g transform="translate(51 136) rotate(-86)"><g fill="#ffffff"><path transform="translate(-13.41 6.16) scale(0.0140 -0.0140)" d="M266 541Q246 541 246 521Q246 514 251 497Q258 474 282.0 453.5Q306 433 345 406Q377 384 386 376Q430 338 456.0 312.5Q482 287 503.5 252.5Q525 218 525 182Q525 158 513 132Q490 85 437.5 60.0Q385 35 326 35Q306 35 286 38Q150 61 35 219Q29 228 29 237Q29 259 58.5 277.5Q88 296 117 296Q139 296 149 283Q211 199 271 160Q326 124 364 124Q395 124 395 151Q395 170 380 198Q365 225 341.0 249.0Q317 273 280 304L253 327Q249 331 216 356Q189 376 170.0 393.0Q151 410 138 430Q121 457 121 486Q121 531 159.5 568.5Q198 606 248 620Q280 629 309 629Q363 629 413.5 604.0Q464 579 516 535Q525 528 525 518Q525 499 494.0 481.0Q463 463 433 463Q413 463 403 472Q384 488 337.5 514.5Q291 541 266 541Z"/><path transform="translate(-6.04 6.16) scale(0.0140 -0.0140)" d="M348 360Q348 405 332.5 442.5Q317 480 284 504Q262 520 242 520Q234 520 222 516Q231 512 231 502Q231 496 227 488Q204 444 191.0 392.5Q178 341 178 289Q178 229 196 175Q208 145 221 128Q227 121 233 118Q262 138 285.5 174.0Q309 210 325 249Q348 303 348 360ZM466 381Q466 322 443.0 260.0Q420 198 380.0 146.0Q340 94 291 64Q245 36 201 36Q157 36 124.0 63.0Q91 90 76 141Q59 193 59 258Q59 297 65 334Q58 332 44 332Q10 332 10 355Q10 363 12 368Q46 463 114.5 533.5Q183 604 272 604Q285 604 311 600Q360 590 395.0 557.0Q430 524 448.0 477.5Q466 431 466 381Z"/><path transform="translate(0.63 6.16) scale(0.0140 -0.0140)" d="M220 878Q252 878 251 854Q235 675 198 360Q174 145 167 81Q165 60 135.5 43.5Q106 27 78 27Q39 27 42 56Q77 400 131 828Q133 847 163.0 862.5Q193 878 220 878Z"/><path transform="translate(3.98 6.16) scale(0.0140 -0.0140)" d="M475 696Q486 696 495 690Q507 682 507 668Q507 651 491 637Q442 594 411.5 531.5Q381 469 351 379Q312 260 259 58Q254 41 225.0 22.5Q196 4 171 4Q149 4 142 23Q49 288 43 603Q42 624 73.5 643.0Q105 662 133 662Q162 662 162 640Q162 455 203 274Q229 362 253 424Q286 513 323.0 575.5Q360 638 418 676Q429 684 445.0 690.0Q461 696 475 696Z"/><path transform="translate(10.28 6.16) scale(0.0140 -0.0140)" d="M151 624Q167 624 177.0 617.5Q187 611 186 597L157 54Q156 33 128.0 17.5Q100 2 72 2Q35 2 36 31L66 573Q67 593 95.0 608.5Q123 624 151 624ZM97 677Q124 677 152.0 692.0Q180 707 183 728Q191 778 194 803Q198 828 163 828Q136 828 107.0 813.0Q78 798 76 779L64 705Q62 691 71.5 684.0Q81 677 97 677Z"/></g></g>
 </g>
</defs>
<rect width="600" height="800" fill="url(#bg)"/>
<ellipse cx="300" cy="530" rx="310" ry="70" fill="url(#floor)"/>
<ellipse cx="300" cy="420" rx="250" ry="90" fill="#e4572e" opacity=".24" filter="url(#b14)"/>
<g mask="url(#rm)" opacity=".16"><g transform="translate(0 1026) scale(1 -1)"><use href="#shoe" transform="translate(38 262) scale(1.05)"/></g></g>
<ellipse cx="300" cy="516" rx="240" ry="12" fill="#000" opacity=".7" filter="url(#b5)"/>
<use href="#shoe" transform="translate(38 262) scale(1.05)"/>
</svg>